<svg height="480pt" viewBox="0 -20 480.02218 480" width="480pt" xmlns="http://www.w3.org/2000/svg"><path d="m440 431.996094h-16l-16-288h48zm0 0" fill="#d3843d"/><g fill="#cfdfe8"><path d="m472 87.410156c0 31.25-17.910156 56.585938-40 56.585938s-40-25.335938-40-56.585938c0-31.246094 41-121.238281 40-56.574218-.34375 22.3125 40 25.328124 40 56.574218zm0 0"/><path d="m408 167.996094h48v16h-48zm0 0"/><path d="m408 199.996094h48v16h-48zm0 0"/></g><path d="m352 271.996094c-35.839844 0-68.183594-21.488282-68.183594-48 0-26.511719 32.34375-48 68.183594-48 2.6875.019531 5.363281.285156 8 .800781-18.777344-73.882813-91.792969-128.800781-176-128.800781-98.566406 0-176 75.199218-176 168 0 92.800781 77.433594 168 176 168 77.792969 0 151.558594-46.640625 176-112-2.015625.136718-5.9375 0-8 0zm0 0" fill="#394d5c"/><path d="m144 142.59375c0 17.675781-14.328125 32-32 32s-32-14.324219-32-32c0-17.671875 14.328125-32 32-32s32 14.328125 32 32zm0 0" fill="#fdbd40"/><path d="m256 118.59375c0 17.675781-14.328125 32-32 32s-32-14.324219-32-32c0-17.671875 14.328125-32 32-32s32 14.328125 32 32zm0 0" fill="#e9686a"/><path d="m112 246.59375c0 17.675781-14.328125 32-32 32s-32-14.324219-32-32c0-17.671875 14.328125-32 32-32s32 14.328125 32 32zm0 0" fill="#238892"/><path d="m200 318.59375c0 17.675781-14.328125 32-32 32s-32-14.324219-32-32c0-17.671875 14.328125-32 32-32s32 14.328125 32 32zm0 0" fill="#cfdfe8"/><path d="m454.160156 47.523438c-8.832031-6.480469-14.25-10.726563-14.160156-16.566407.265625-17.242187-2.144531-25.769531-8.320312-29.417969-3.742188-2.125-8.347657-2.027343-12 .25-16.078126 9.152344-35.679688 64.046876-35.679688 85.621094-.453125 18.679688 6.160156 36.84375 18.519531 50.859375-.105469.09375-.238281.132813-.335937.230469-1.511719 1.597656-2.296875 3.746094-2.175782 5.945312l16 288c.238282 4.238282 3.746094 7.554688 7.992188 7.550782h16c4.25.007812 7.761719-3.308594 8-7.550782l16-288c.121094-2.199218-.664062-4.347656-2.175781-5.945312-.097657-.097656-.230469-.136719-.335938-.230469 12.355469-14.015625 18.96875-32.179687 18.511719-50.859375 0-20.941406-14.328125-31.414062-25.839844-39.886718zm-6.617187 104.472656-.886719 16h-29.3125l-.886719-16zm-29.3125 32h27.539062l-.890625 16h-25.757812zm14.203125 240h-.867188l-11.566406-208h24zm-.433594-288c-17.34375 0-32-22.25-32-48.585938 0-18.246094 14.710938-54.636718 23.632812-67.445312.335938 3.570312.457032 7.15625.367188 10.742187-.214844 14.402344 10.894531 22.535157 20.703125 29.730469 10.351563 7.558594 19.296875 14.140625 19.296875 26.972656 0 26.335938-14.65625 48.585938-32 48.585938zm0 0"/><path d="m352 183.996094c1.457031-.03125 2.910156.082031 4.34375.335937l2.625.367188c2.632812.347656 5.261719-.632813 7.027344-2.617188 1.761718-1.984375 2.425781-4.714843 1.773437-7.285156-19.875-78.113281-97.152343-134.800781-183.769531-134.800781-101.457031 0-184 78.953125-184 176s82.542969 176 184 176c80.9375 0 158.105469-49.289063 183.496094-117.199219.953125-2.554687.539062-5.421875-1.097656-7.601563-1.632813-2.171874-4.253907-3.375-6.964844-3.199218-1.234375.078125-3.265625 0-5 0h-2.433594c-32.054688 0-60.175781-18.6875-60.175781-40s28.121093-40 60.175781-40zm-76.175781 40c0 29.351562 32.625 54.3125 72.121093 55.917968-26.914062 56.28125-93.816406 96.082032-163.945312 96.082032-94.207031 0-168-70.28125-168-160s73.792969-160 168-160c75.359375 0 142.9375 46.503906 165.078125 112.039062-40.007813 1.175782-73.253906 26.359375-73.253906 55.960938zm0 0"/><path d="m112 182.59375c22.089844 0 40-17.90625 40-40 0-22.089844-17.910156-40-40-40s-40 17.910156-40 40c.027344 22.082031 17.917969 39.976562 40 40zm0-64c13.253906 0 24 10.746094 24 24 0 13.257812-10.746094 24-24 24s-24-10.742188-24-24c0-13.253906 10.746094-24 24-24zm0 0"/><path d="m224 78.59375c-22.089844 0-40 17.910156-40 40 0 22.09375 17.910156 40 40 40s40-17.90625 40-40c-.027344-22.078125-17.917969-39.972656-40-40zm0 64c-13.253906 0-24-10.742188-24-24 0-13.253906 10.746094-24 24-24s24 10.746094 24 24c0 13.257812-10.746094 24-24 24zm0 0"/><path d="m80 206.59375c-22.089844 0-40 17.910156-40 40 0 22.09375 17.910156 40 40 40s40-17.90625 40-40c-.027344-22.078125-17.917969-39.972656-40-40zm0 64c-13.253906 0-24-10.742188-24-24 0-13.253906 10.746094-24 24-24s24 10.746094 24 24c0 13.257812-10.746094 24-24 24zm0 0"/><path d="m168 278.59375c-22.089844 0-40 17.910156-40 40 0 22.09375 17.910156 40 40 40s40-17.90625 40-40c-.027344-22.078125-17.917969-39.972656-40-40zm0 64c-13.253906 0-24-10.742188-24-24 0-13.253906 10.746094-24 24-24s24 10.746094 24 24c0 13.257812-10.746094 24-24 24zm0 0"/></svg>