<svg height="480pt" viewBox="-92 0 480 480" width="480pt" xmlns="http://www.w3.org/2000/svg"><path d="m8 376 48 96 48-96zm0 0" fill="#f2b481"/><path d="m8 56h96v32h-96zm0 0" fill="#238892"/><path d="m24 8h64c8.835938 0 16 7.164062 16 16v32h-96v-32c0-8.835938 7.164062-16 16-16zm0 0" fill="#cfdfe8"/><path d="m32 424h48l-24 48zm0 0" fill="#394d5c"/><path d="m288 480h-232c-4.417969 0-8-3.582031-8-8s3.582031-8 8-8h232c4.417969 0 8 3.582031 8 8s-3.582031 8-8 8zm0 0" fill="#546977"/><path d="m8 88h48v288h-48zm0 0" fill="#e9686a"/><path d="m56 88h48v288h-48zm0 0" fill="#fdbd40"/><path d="m288 464h-219.054688l42.253907-84.425781c.046875-.09375.214843-.644531.289062-.796875.25-.910156.421875-1.839844.511719-2.777344v-352c0-13.253906-10.746094-24-24-24h-64c-13.253906 0-24 10.746094-24 24v352c.105469.929688.289062 1.851562.550781 2.753906.074219.175782.242188.726563.289063.796875l48 96c.371094.722657.851562 1.382813 1.425781 1.960938.125.136719.285156.230469.429687.359375.550782.492187 1.164063.910156 1.824219 1.234375.242188.109375.464844.222656.710938.308593.882812.363282 1.820312.558594 2.769531.585938h232c4.417969 0 8-3.582031 8-8s-3.582031-8-8-8zm-272-96v-272h32v272zm80-288h-80v-16h80zm-32 16h32v272h-32zm-48-72c0-4.417969 3.582031-8 8-8h64c4.417969 0 8 3.582031 8 8v24h-80zm75.054688 360-16 32h-38.109376l-16-32zm-24 48-11.054688 22.113281-11.054688-22.113281zm0 0"/></svg>